<svg width="1328" height="282" viewBox="0 0 1328 282" fill="none" xmlns="http://www.w3.org/2000/svg">
<path d="M1304.94 281.856C1303.89 281.856 1302.91 281.772 1301.99 281.604C1301.08 281.449 1300.33 281.249 1299.74 281.003L1301.6 274.839C1302.57 275.136 1303.44 275.297 1304.22 275.323C1305.01 275.349 1305.68 275.168 1306.25 274.78C1306.83 274.393 1307.31 273.734 1307.67 272.803L1308.15 271.543L1297.47 240.914H1306.16L1312.32 262.781H1312.63L1318.85 240.914H1327.6L1316.02 273.908C1315.47 275.511 1314.71 276.906 1313.76 278.095C1312.81 279.297 1311.62 280.221 1310.17 280.867C1308.72 281.527 1306.98 281.856 1304.94 281.856Z" fill="white"/>
<path d="M1294.79 240.914V247.117H1276.41V240.914H1294.79ZM1280.62 270.69V238.762C1280.62 236.604 1281.04 234.814 1281.88 233.392C1282.73 231.97 1283.9 230.904 1285.37 230.193C1286.84 229.483 1288.52 229.127 1290.39 229.127C1291.66 229.127 1292.81 229.224 1293.86 229.418C1294.92 229.612 1295.71 229.786 1296.23 229.941L1294.75 236.145C1294.43 236.041 1294.03 235.944 1293.55 235.854C1293.09 235.764 1292.61 235.718 1292.12 235.718C1290.9 235.718 1290.06 236.003 1289.58 236.571C1289.1 237.127 1288.86 237.909 1288.86 238.917V270.69H1280.62Z" fill="white"/>
<path d="M1263.91 270.69V240.914H1272.16V270.69H1263.91ZM1268.05 237.075C1266.83 237.075 1265.77 236.668 1264.89 235.854C1264.03 235.027 1263.6 234.038 1263.6 232.888C1263.6 231.751 1264.03 230.775 1264.89 229.961C1265.77 229.134 1266.83 228.72 1268.05 228.72C1269.28 228.72 1270.33 229.134 1271.19 229.961C1272.07 230.775 1272.51 231.751 1272.51 232.888C1272.51 234.038 1272.07 235.027 1271.19 235.854C1270.33 236.668 1269.28 237.075 1268.05 237.075Z" fill="white"/>
<path d="M1241.57 270.69V240.914H1249.57V246.109H1249.88C1250.43 244.261 1251.34 242.865 1252.62 241.922C1253.9 240.965 1255.37 240.487 1257.04 240.487C1257.45 240.487 1257.9 240.513 1258.38 240.565C1258.85 240.616 1259.27 240.687 1259.64 240.778V248.106C1259.25 247.989 1258.71 247.886 1258.03 247.796C1257.34 247.705 1256.72 247.66 1256.15 247.66C1254.93 247.66 1253.85 247.925 1252.89 248.455C1251.95 248.972 1251.2 249.695 1250.64 250.626C1250.1 251.556 1249.83 252.629 1249.83 253.844V270.69H1241.57Z" fill="white"/>
<path d="M1222.51 271.272C1219.45 271.272 1216.81 270.651 1214.6 269.411C1212.41 268.157 1210.71 266.386 1209.52 264.099C1208.33 261.798 1207.74 259.078 1207.74 255.938C1207.74 252.875 1208.33 250.186 1209.52 247.873C1210.71 245.56 1212.39 243.757 1214.54 242.465C1216.72 241.172 1219.26 240.526 1222.18 240.526C1224.15 240.526 1225.98 240.843 1227.67 241.476C1229.37 242.096 1230.86 243.033 1232.13 244.287C1233.41 245.54 1234.4 247.117 1235.11 249.017C1235.82 250.904 1236.18 253.114 1236.18 255.647V257.915H1211.04V252.797H1228.41C1228.41 251.608 1228.15 250.555 1227.63 249.637C1227.11 248.72 1226.4 248.002 1225.48 247.485C1224.57 246.956 1223.52 246.691 1222.32 246.691C1221.06 246.691 1219.95 246.981 1218.98 247.563C1218.03 248.132 1217.28 248.901 1216.74 249.87C1216.19 250.826 1215.91 251.892 1215.9 253.068V257.934C1215.9 259.408 1216.17 260.681 1216.72 261.753C1217.27 262.826 1218.05 263.653 1219.06 264.235C1220.07 264.816 1221.26 265.107 1222.65 265.107C1223.57 265.107 1224.41 264.978 1225.17 264.719C1225.93 264.461 1226.58 264.073 1227.13 263.556C1227.67 263.039 1228.08 262.406 1228.37 261.656L1236 262.16C1235.62 263.996 1234.82 265.598 1233.62 266.968C1232.43 268.325 1230.89 269.385 1229.01 270.147C1227.13 270.897 1224.97 271.272 1222.51 271.272Z" fill="white"/>
<path d="M1178.79 230.988L1188.39 261.152H1188.76L1198.37 230.988H1207.68L1193.99 270.69H1183.17L1169.47 230.988H1178.79Z" fill="white"/>
<path d="M1135.1 271.175C1132.84 271.175 1130.79 270.593 1128.95 269.43C1127.13 268.254 1125.68 266.529 1124.61 264.254C1123.55 261.966 1123.02 259.162 1123.02 255.841C1123.02 252.429 1123.57 249.592 1124.67 247.33C1125.77 245.056 1127.23 243.356 1129.05 242.232C1130.88 241.095 1132.89 240.526 1135.08 240.526C1136.75 240.526 1138.13 240.81 1139.25 241.379C1140.37 241.935 1141.28 242.633 1141.96 243.473C1142.66 244.3 1143.19 245.114 1143.55 245.915H1143.8V230.988H1152.04V270.69H1143.9V265.921H1143.55C1143.16 266.748 1142.61 267.569 1141.9 268.383C1141.2 269.184 1140.29 269.85 1139.17 270.38C1138.06 270.91 1136.7 271.175 1135.1 271.175ZM1137.71 264.603C1139.05 264.603 1140.17 264.241 1141.09 263.517C1142.02 262.781 1142.73 261.753 1143.22 260.435C1143.72 259.117 1143.98 257.572 1143.98 255.802C1143.98 254.031 1143.73 252.493 1143.24 251.188C1142.75 249.883 1142.04 248.875 1141.11 248.164C1140.18 247.453 1139.05 247.098 1137.71 247.098C1136.36 247.098 1135.21 247.466 1134.28 248.203C1133.35 248.939 1132.65 249.96 1132.17 251.266C1131.69 252.571 1131.45 254.083 1131.45 255.802C1131.45 257.534 1131.69 259.065 1132.17 260.396C1132.66 261.714 1133.37 262.748 1134.28 263.498C1135.21 264.235 1136.36 264.603 1137.71 264.603Z" fill="white"/>
<path d="M1098.42 253.476V270.69H1090.17V240.914H1098.04V246.167H1098.39C1099.04 244.435 1100.15 243.065 1101.7 242.057C1103.25 241.036 1105.13 240.526 1107.34 240.526C1109.41 240.526 1111.21 240.978 1112.75 241.883C1114.29 242.788 1115.48 244.08 1116.34 245.76C1117.19 247.427 1117.62 249.417 1117.62 251.731V270.69H1109.36V253.204C1109.37 251.382 1108.91 249.96 1107.96 248.939C1107.02 247.905 1105.72 247.388 1104.07 247.388C1102.95 247.388 1101.97 247.628 1101.12 248.106C1100.28 248.584 1099.62 249.282 1099.14 250.199C1098.68 251.104 1098.44 252.196 1098.42 253.476Z" fill="white"/>
<path d="M1066.99 271.252C1065.09 271.252 1063.4 270.923 1061.91 270.264C1060.43 269.591 1059.25 268.603 1058.38 267.298C1057.53 265.979 1057.1 264.338 1057.1 262.374C1057.1 260.719 1057.41 259.33 1058.02 258.206C1058.62 257.081 1059.45 256.177 1060.5 255.492C1061.54 254.807 1062.73 254.29 1064.06 253.941C1065.41 253.592 1066.82 253.346 1068.29 253.204C1070.02 253.023 1071.42 252.855 1072.48 252.7C1073.54 252.532 1074.31 252.287 1074.78 251.963C1075.26 251.64 1075.5 251.162 1075.5 250.529V250.413C1075.5 249.185 1075.11 248.235 1074.34 247.563C1073.58 246.891 1072.49 246.555 1071.08 246.555C1069.59 246.555 1068.41 246.884 1067.53 247.544C1066.65 248.19 1066.07 249.004 1065.79 249.986L1058.15 249.366C1058.54 247.556 1059.3 245.993 1060.44 244.674C1061.58 243.343 1063.04 242.322 1064.84 241.612C1066.65 240.888 1068.74 240.526 1071.12 240.526C1072.77 240.526 1074.36 240.72 1075.87 241.108C1077.39 241.495 1078.74 242.096 1079.92 242.91C1081.11 243.725 1082.05 244.771 1082.73 246.051C1083.42 247.317 1083.76 248.836 1083.76 250.606V270.69H1075.93V266.561H1075.69C1075.22 267.491 1074.58 268.312 1073.78 269.023C1072.97 269.721 1072.01 270.27 1070.89 270.671C1069.76 271.058 1068.46 271.252 1066.99 271.252ZM1069.36 265.553C1070.57 265.553 1071.64 265.314 1072.57 264.836C1073.5 264.344 1074.23 263.685 1074.76 262.858C1075.29 262.031 1075.56 261.094 1075.56 260.047V256.887C1075.3 257.055 1074.95 257.211 1074.49 257.353C1074.05 257.482 1073.56 257.605 1073 257.721C1072.44 257.824 1071.89 257.921 1071.33 258.012C1070.78 258.089 1070.27 258.16 1069.82 258.225C1068.85 258.367 1068.01 258.593 1067.28 258.904C1066.56 259.214 1066 259.634 1065.59 260.164C1065.19 260.681 1064.99 261.327 1064.99 262.102C1064.99 263.227 1065.4 264.086 1066.22 264.68C1067.04 265.262 1068.09 265.553 1069.36 265.553Z" fill="white"/>
<path d="M1040.49 240.914V247.117H1022.55V240.914H1040.49ZM1026.63 233.78H1034.88V261.54C1034.88 262.302 1035 262.897 1035.23 263.323C1035.47 263.737 1035.79 264.028 1036.2 264.196C1036.63 264.364 1037.12 264.448 1037.68 264.448C1038.06 264.448 1038.45 264.416 1038.84 264.351C1039.23 264.273 1039.52 264.215 1039.73 264.176L1041.03 270.322C1040.62 270.451 1040.03 270.6 1039.28 270.768C1038.53 270.948 1037.62 271.058 1036.55 271.097C1034.56 271.175 1032.82 270.91 1031.32 270.302C1029.83 269.695 1028.67 268.751 1027.85 267.472C1027.02 266.193 1026.61 264.577 1026.63 262.626V233.78Z" fill="white"/>
<path d="M1018.77 249.405L1011.21 249.87C1011.08 249.224 1010.8 248.642 1010.37 248.125C1009.95 247.595 1009.39 247.175 1008.69 246.865C1008 246.542 1007.18 246.38 1006.23 246.38C1004.95 246.38 1003.87 246.652 1002.99 247.195C1002.11 247.724 1001.67 248.435 1001.67 249.327C1001.67 250.038 1001.96 250.639 1002.52 251.13C1003.09 251.621 1004.07 252.015 1005.45 252.312L1010.84 253.398C1013.74 253.993 1015.89 254.949 1017.31 256.267C1018.74 257.585 1019.45 259.317 1019.45 261.462C1019.45 263.414 1018.87 265.126 1017.72 266.6C1016.58 268.073 1015.02 269.223 1013.03 270.05C1011.05 270.864 1008.77 271.272 1006.19 271.272C1002.25 271.272 999.105 270.451 996.766 268.81C994.44 267.155 993.076 264.907 992.676 262.063L1000.8 261.637C1001.04 262.839 1001.64 263.756 1002.58 264.39C1003.53 265.01 1004.73 265.32 1006.21 265.32C1007.65 265.32 1008.82 265.042 1009.7 264.487C1010.59 263.918 1011.04 263.188 1011.05 262.296C1011.04 261.546 1010.72 260.933 1010.1 260.454C1009.48 259.963 1008.53 259.588 1007.23 259.33L1002.08 258.303C999.17 257.721 997.005 256.713 995.584 255.278C994.175 253.844 993.471 252.015 993.471 249.792C993.471 247.88 993.988 246.232 995.021 244.849C996.068 243.466 997.535 242.4 999.422 241.65C1001.32 240.901 1003.54 240.526 1006.09 240.526C1009.85 240.526 1012.81 241.321 1014.97 242.91C1017.14 244.5 1018.41 246.665 1018.77 249.405Z" fill="white"/>
<path d="M979.13 258.012V240.914H987.388V270.69H979.46V265.281H979.149C978.477 267.026 977.359 268.428 975.796 269.488C974.245 270.548 972.352 271.078 970.116 271.078C968.125 271.078 966.374 270.625 964.862 269.721C963.35 268.816 962.168 267.53 961.315 265.863C960.475 264.196 960.048 262.199 960.035 259.873V240.914H968.293V258.399C968.306 260.157 968.778 261.546 969.709 262.567C970.639 263.588 971.886 264.099 973.45 264.099C974.445 264.099 975.376 263.873 976.242 263.42C977.107 262.955 977.805 262.27 978.335 261.365C978.878 260.461 979.143 259.343 979.13 258.012Z" fill="white"/>
<path d="M937.698 270.69V240.914H945.705V246.109H946.015C946.557 244.261 947.469 242.865 948.748 241.922C950.028 240.965 951.501 240.487 953.168 240.487C953.582 240.487 954.027 240.513 954.506 240.565C954.984 240.616 955.404 240.687 955.766 240.778V248.106C955.378 247.989 954.842 247.886 954.157 247.796C953.472 247.705 952.845 247.66 952.276 247.66C951.061 247.66 949.976 247.925 949.019 248.455C948.076 248.972 947.326 249.695 946.771 250.626C946.228 251.556 945.957 252.629 945.957 253.844V270.69H937.698Z" fill="white"/>
<path d="M902.969 237.909V230.988H935.575V237.909H923.421V270.69H915.124V237.909H902.969Z" fill="white"/>
<path d="M1221.22 161.627C1213.62 161.627 1206.74 159.674 1200.58 155.769C1194.46 151.82 1189.6 146.027 1186 138.389C1182.44 130.708 1180.66 121.292 1180.66 110.139C1180.66 98.683 1182.51 89.1578 1186.2 81.5637C1189.89 73.9262 1194.79 68.2198 1200.91 64.4444C1207.07 60.6257 1213.82 58.7163 1221.15 58.7163C1226.75 58.7163 1231.41 59.671 1235.15 61.5804C1238.92 63.4463 1241.96 65.7897 1244.26 68.6103C1246.6 71.3876 1248.38 74.1215 1249.6 76.812H1250.44V26.6909H1278.11V160H1250.77V143.987H1249.6C1248.29 146.765 1246.45 149.52 1244.06 152.254C1241.72 154.944 1238.66 157.179 1234.89 158.958C1231.15 160.738 1226.6 161.627 1221.22 161.627ZM1230 139.561C1234.47 139.561 1238.25 138.346 1241.33 135.916C1244.45 133.442 1246.84 129.992 1248.49 125.566C1250.18 121.14 1251.03 115.954 1251.03 110.009C1251.03 104.064 1250.2 98.9 1248.56 94.5171C1246.91 90.1342 1244.52 86.7494 1241.4 84.3627C1238.27 81.9759 1234.47 80.7826 1230 80.7826C1225.45 80.7826 1221.61 82.0193 1218.48 84.4928C1215.36 86.9664 1212.99 90.3946 1211.39 94.7774C1209.78 99.1603 1208.98 104.238 1208.98 110.009C1208.98 115.824 1209.78 120.966 1211.39 125.436C1213.04 129.862 1215.4 133.334 1218.48 135.851C1221.61 138.324 1225.45 139.561 1230 139.561Z" fill="#6666CC"/>
<path d="M1120.39 161.953C1110.1 161.953 1101.25 159.87 1093.83 155.704C1086.45 151.495 1080.77 145.549 1076.78 137.869C1072.78 130.144 1070.79 121.01 1070.79 110.465C1070.79 100.18 1072.78 91.154 1076.78 83.3863C1080.77 75.6186 1086.39 69.565 1093.64 65.2255C1100.93 60.886 1109.47 58.7163 1119.28 58.7163C1125.88 58.7163 1132.02 59.7795 1137.7 61.9058C1143.43 63.9888 1148.42 67.1349 1152.67 71.3442C1156.97 75.5535 1160.31 80.8477 1162.7 87.2267C1165.08 93.5624 1166.28 100.983 1166.28 109.488V117.104H1081.85V99.9198H1140.18C1140.18 95.9274 1139.31 92.3907 1137.57 89.3097C1135.84 86.2287 1133.43 83.8203 1130.35 82.0845C1127.31 80.3053 1123.77 79.4157 1119.74 79.4157C1115.53 79.4157 1111.8 80.3921 1108.54 82.3448C1105.33 84.2542 1102.81 86.8362 1100.99 90.0908C1099.17 93.302 1098.24 96.8821 1098.19 100.831V117.169C1098.19 122.116 1099.1 126.391 1100.93 129.992C1102.79 133.594 1105.42 136.371 1108.8 138.324C1112.19 140.277 1116.2 141.253 1120.84 141.253C1123.92 141.253 1126.75 140.819 1129.31 139.952C1131.87 139.084 1134.06 137.782 1135.88 136.046C1137.7 134.31 1139.09 132.184 1140.05 129.667L1165.69 131.359C1164.39 137.521 1161.72 142.902 1157.69 147.502C1153.69 152.059 1148.53 155.617 1142.19 158.177C1135.9 160.694 1128.63 161.953 1120.39 161.953Z" fill="#6666CC"/>
<path d="M1004.48 160V60.0182H1031.36V77.4629H1032.4C1034.22 71.2574 1037.28 66.5708 1041.58 63.403C1045.87 60.1917 1050.82 58.5861 1056.42 58.5861C1057.81 58.5861 1059.3 58.6729 1060.91 58.8465C1062.52 59.0201 1063.93 59.2587 1065.14 59.5625V84.1674C1063.84 83.7769 1062.04 83.4297 1059.74 83.1259C1057.44 82.8222 1055.33 82.6703 1053.42 82.6703C1049.35 82.6703 1045.7 83.5599 1042.49 85.3391C1039.32 87.0749 1036.8 89.505 1034.94 92.6294C1033.12 95.7538 1032.2 99.3556 1032.2 103.435V160H1004.48Z" fill="#6666CC"/>
<path d="M984.785 73.3621H956.274C955.753 69.6735 954.69 66.3972 953.085 63.5331C951.479 60.6257 949.418 58.1522 946.901 56.1126C944.384 54.073 941.476 52.5108 938.178 51.426C934.924 50.3411 931.387 49.7987 927.568 49.7987C920.669 49.7987 914.658 51.5127 909.538 54.9409C904.417 58.3257 900.447 63.2728 897.626 69.782C894.805 76.2478 893.395 84.1023 893.395 93.3454C893.395 102.849 894.805 110.834 897.626 117.299C900.49 123.765 904.482 128.647 909.603 131.945C914.723 135.243 920.647 136.892 927.373 136.892C931.148 136.892 934.642 136.393 937.853 135.395C941.108 134.397 943.993 132.943 946.51 131.034C949.027 129.081 951.11 126.716 952.759 123.939C954.451 121.162 955.623 117.994 956.274 114.435L984.785 114.566C984.047 120.684 982.203 126.586 979.252 132.271C976.344 137.912 972.417 142.967 967.47 147.437C962.566 151.863 956.708 155.378 949.895 157.982C943.125 160.542 935.466 161.823 926.917 161.823C915.027 161.823 904.395 159.132 895.022 153.751C885.692 148.37 878.315 140.581 872.891 130.383C867.51 120.185 864.819 107.839 864.819 93.3454C864.819 78.8081 867.553 66.4406 873.021 56.2428C878.489 46.045 885.909 38.2773 895.283 32.9397C904.656 27.5588 915.201 24.8683 926.917 24.8683C934.642 24.8683 941.802 25.9532 948.398 28.1229C955.037 30.2926 960.917 33.4605 966.038 37.6264C971.159 41.7489 975.324 46.8044 978.536 52.7929C981.79 58.7814 983.873 65.6378 984.785 73.3621Z" fill="#6666CC"/>
<path d="M816.7 160V60.0182H844.43V160H816.7ZM830.63 47.1299C826.507 47.1299 822.971 45.7629 820.02 43.0291C817.112 40.2518 815.659 36.9321 815.659 33.0699C815.659 29.2512 817.112 25.9749 820.02 23.241C822.971 20.4637 826.507 19.0751 830.63 19.0751C834.752 19.0751 838.267 20.4637 841.175 23.241C844.126 25.9749 845.601 29.2512 845.601 33.0699C845.601 36.9321 844.126 40.2518 841.175 43.0291C838.267 45.7629 834.752 47.1299 830.63 47.1299Z" fill="white"/>
<path d="M745.749 199.576C736.767 199.576 729.064 198.339 722.641 195.866C716.262 193.436 711.185 190.116 707.41 185.907C703.635 181.697 701.183 176.967 700.054 171.717L725.701 168.267C726.482 170.263 727.719 172.129 729.411 173.865C731.103 175.6 733.338 176.989 736.116 178.031C738.936 179.115 742.364 179.658 746.4 179.658C752.432 179.658 757.401 178.182 761.306 175.232C765.255 172.324 767.23 167.442 767.23 160.586V142.295H766.058C764.843 145.072 763.02 147.698 760.59 150.171C758.16 152.645 755.036 154.662 751.217 156.225C747.398 157.787 742.842 158.568 737.548 158.568C730.04 158.568 723.206 156.832 717.044 153.361C710.925 149.846 706.043 144.486 702.398 137.283C698.796 130.036 696.995 120.879 696.995 109.814C696.995 98.4877 698.839 89.0276 702.528 81.4335C706.217 73.8394 711.12 68.1547 717.239 64.3793C723.401 60.604 730.149 58.7163 737.483 58.7163C743.08 58.7163 747.767 59.671 751.542 61.5804C755.318 63.4464 758.355 65.7897 760.655 68.6103C762.999 71.3876 764.8 74.1215 766.058 76.812H767.1V60.0182H794.634V160.976C794.634 169.482 792.551 176.599 788.385 182.327C784.219 188.055 778.447 192.351 771.07 195.215C763.736 198.122 755.296 199.576 745.749 199.576ZM746.335 137.738C750.805 137.738 754.58 136.632 757.661 134.419C760.786 132.162 763.172 128.951 764.821 124.785C766.514 120.576 767.36 115.542 767.36 109.684C767.36 103.825 766.535 98.7481 764.886 94.452C763.237 90.1125 760.851 86.7494 757.726 84.3627C754.602 81.976 750.805 80.7826 746.335 80.7826C741.779 80.7826 737.938 82.0194 734.814 84.4929C731.689 86.923 729.324 90.3078 727.719 94.6473C726.113 98.9868 725.31 103.999 725.31 109.684C725.31 115.455 726.113 120.446 727.719 124.655C729.368 128.821 731.733 132.054 734.814 134.354C737.938 136.61 741.779 137.738 746.335 137.738Z" fill="white"/>
<path d="M650.764 160V60.0182H678.493V160H650.764ZM664.693 47.1299C660.571 47.1299 657.034 45.7629 654.083 43.0291C651.176 40.2518 649.722 36.9321 649.722 33.0699C649.722 29.2512 651.176 25.9749 654.083 23.241C657.034 20.4637 660.571 19.0751 664.693 19.0751C668.816 19.0751 672.331 20.4637 675.238 23.241C678.189 25.9749 679.665 29.2512 679.665 33.0699C679.665 36.9321 678.189 40.2518 675.238 43.0291C672.331 45.7629 668.816 47.1299 664.693 47.1299Z" fill="white"/>
<path d="M565.183 160H517.926V26.6909H565.574C578.983 26.6909 590.526 29.3596 600.203 34.6972C609.88 39.9914 617.322 47.6072 622.53 57.5446C627.78 67.4821 630.406 79.3723 630.406 93.2152C630.406 107.102 627.78 119.035 622.53 129.016C617.322 138.997 609.837 146.656 600.073 151.994C590.352 157.331 578.723 160 565.183 160ZM546.111 135.851H564.012C572.343 135.851 579.352 134.375 585.036 131.424C590.765 128.43 595.061 123.809 597.925 117.56C600.832 111.267 602.286 103.153 602.286 93.2152C602.286 83.3646 600.832 75.3148 597.925 69.066C595.061 62.8171 590.786 58.2172 585.102 55.2664C579.417 52.3155 572.409 50.8401 564.077 50.8401H546.111V135.851Z" fill="white"/>
<path fill-rule="evenodd" clip-rule="evenodd" d="M441.64 207.53L214.98 267.4C193.43 273.09 426.21 189.84 420.52 168.29L416.44 96.86C413.67 86.37 130.81 89.93 135.69 81.14C140.84 71.88 149.6 64.64 160.66 61.72L387.32 1.85002C408.87 -3.83998 430.95 9.01001 436.64 30.56L470.36 158.22C476.05 179.77 463.2 201.85 441.65 207.54L441.64 207.53Z" fill="white"/>
<path d="M398.25 148.32H9.57C4.28463 148.32 0 152.605 0 157.89V162.73C0 168.015 4.28463 172.3 9.57 172.3H398.25C403.535 172.3 407.82 168.015 407.82 162.73V157.89C407.82 152.605 403.535 148.32 398.25 148.32Z" fill="#6666CC"/>
<path fill-rule="evenodd" clip-rule="evenodd" d="M402.59 61.92H168.15C145.86 61.92 127.8 79.99 127.8 102.27V102.4H384.86C397.54 102.4 407.82 112.68 407.82 125.36C407.82 138.04 397.54 148.32 384.86 148.32H127.8V172.3H273.38C280 172.3 285.37 177.67 285.37 184.29C285.37 190.91 280 196.28 273.38 196.28H127.8V234.3C127.8 256.59 145.87 274.65 168.15 274.65H402.59C424.88 274.65 442.94 256.58 442.94 234.3V102.26C442.94 79.97 424.87 61.91 402.59 61.91V61.92Z" fill="#6666CC"/>
<path d="M398.25 196.28H102.25C96.9648 196.28 92.6802 200.565 92.6802 205.85V210.69C92.6802 215.975 96.9648 220.26 102.25 220.26H398.25C403.536 220.26 407.82 215.975 407.82 210.69V205.85C407.82 200.565 403.536 196.28 398.25 196.28Z" fill="#6666CC"/>
<path d="M69.8101 196.28H52.3801C47.0947 196.28 42.8101 200.565 42.8101 205.85V210.69C42.8101 215.975 47.0947 220.26 52.3801 220.26H69.8101C75.0954 220.26 79.3801 215.975 79.3801 210.69V205.85C79.3801 200.565 75.0954 196.28 69.8101 196.28Z" fill="#6666CC"/>
</svg>
