<svg xmlns="http://www.w3.org/2000/svg" xmlns:xlink="http://www.w3.org/1999/xlink" zoomAndPan="magnify" preserveAspectRatio="xMidYMid meet" version="1.0" viewBox="19.15 37.19 337.4 88.38"><defs><g/></defs><g fill="#004aad" fill-opacity="1"><g transform="translate(14.455082, 123.808548)"><g><path d="M 84.96875 -29.382812 L 77.683594 -31.144531 C 74.511719 -14.808594 65.109375 -5.523438 51.59375 -5.523438 C 35.609375 -5.523438 28.089844 -17.628906 28.089844 -43.484375 C 28.089844 -67.8125 35.609375 -80.503906 50.066406 -80.503906 C 63.109375 -80.503906 71.691406 -71.457031 76.980469 -51.828125 L 83.207031 -52.535156 L 82.03125 -86.144531 L 76.980469 -86.144531 L 70.632812 -80.386719 C 62.875 -85.089844 57.46875 -86.617188 49.125 -86.617188 C 23.269531 -86.617188 4.699219 -67.695312 4.699219 -41.367188 C 4.699219 -29.144531 8.34375 -19.507812 15.867188 -11.164062 C 23.976562 -2.234375 33.964844 1.761719 47.714844 1.761719 C 68.515625 1.761719 80.503906 -8.34375 84.96875 -29.382812 Z M 84.96875 -29.382812 "/></g></g></g><g fill="#004aad" fill-opacity="1"><g transform="translate(105.882234, 123.808548)"><g><path d="M 60.761719 -45.480469 C 60.761719 -52.296875 55.355469 -57.351562 47.832031 -57.351562 C 38.785156 -57.351562 32.554688 -52.179688 28.324219 -41.367188 L 28.324219 -55.589844 L 2.117188 -54.765625 L 2.117188 -48.773438 L 3.878906 -48.773438 C 11.046875 -48.773438 11.398438 -48.304688 11.398438 -37.371094 L 11.398438 -11.515625 C 11.398438 -6.699219 11.28125 -5.992188 3.761719 -5.992188 L 2.117188 -5.992188 L 2.117188 0 L 41.367188 0 L 41.367188 -5.992188 L 38.785156 -5.992188 C 31.261719 -5.992188 29.96875 -6.699219 29.96875 -11.515625 L 29.96875 -19.273438 C 29.96875 -27.5 31.96875 -36.785156 34.90625 -41.957031 C 37.371094 -46.304688 39.839844 -48.421875 43.835938 -49.59375 C 42.308594 -47.480469 41.839844 -46.1875 41.839844 -44.070312 C 41.839844 -39.019531 45.601562 -35.375 50.652344 -35.375 C 56.410156 -35.375 60.761719 -39.722656 60.761719 -45.480469 Z M 60.761719 -45.480469 "/></g></g></g><g fill="#004aad" fill-opacity="1"><g transform="translate(166.872842, 123.808548)"><g><path d="M 113.410156 0 L 113.410156 -6.347656 L 112.117188 -6.347656 C 105.890625 -6.347656 103.421875 -6.816406 102.363281 -8.109375 C 101.542969 -9.050781 101.542969 -9.636719 101.542969 -16.921875 L 101.542969 -67.929688 C 101.542969 -75.214844 101.542969 -75.804688 102.363281 -76.742188 C 103.421875 -78.035156 105.890625 -78.507812 112.117188 -78.507812 L 113.410156 -78.507812 L 113.410156 -84.851562 L 75.097656 -84.851562 L 57.941406 -34.316406 L 39.722656 -84.851562 L 1.878906 -84.851562 L 1.878906 -78.507812 L 3.171875 -78.507812 C 9.402344 -78.507812 11.871094 -78.035156 12.929688 -76.742188 C 13.75 -75.804688 13.75 -75.332031 13.75 -67.929688 L 13.75 -25.503906 C 13.75 -15.160156 13.164062 -12.105469 10.695312 -9.519531 C 8.8125 -7.523438 5.640625 -6.464844 1.058594 -6.347656 L 1.058594 0 L 34.550781 0 L 34.550781 -6.347656 C 29.851562 -6.464844 26.5625 -7.523438 24.679688 -9.519531 C 22.210938 -12.105469 21.625 -15.042969 21.625 -25.503906 L 21.625 -74.394531 L 48.304688 0 L 54.414062 0 L 80.386719 -75.570312 L 80.386719 -16.921875 C 80.386719 -9.519531 80.386719 -9.050781 79.5625 -8.109375 C 78.507812 -6.816406 76.039062 -6.347656 69.808594 -6.347656 L 68.515625 -6.347656 L 68.515625 0 Z M 113.410156 0 "/></g></g></g><g fill="#004aad" fill-opacity="1"><g transform="translate(282.155671, 123.808548)"><g><path d="M 74.394531 -26.207031 C 74.394531 -41.132812 65.578125 -49.476562 45.246094 -53.945312 L 39.605469 -55.238281 C 30.554688 -57 30.554688 -57 27.617188 -58.058594 C 22.328125 -59.9375 19.625 -63.347656 19.625 -68.164062 C 19.625 -75.332031 26.207031 -80.503906 35.492188 -80.503906 C 47.714844 -80.503906 57.46875 -71.925781 64.402344 -55.238281 L 70.632812 -55.238281 L 69.105469 -85.675781 L 63.816406 -85.675781 L 57.703125 -80.269531 C 51.125 -84.734375 44.777344 -86.617188 36.550781 -86.617188 C 18.453125 -86.617188 6.109375 -76.039062 6.109375 -60.40625 C 6.109375 -46.070312 16.6875 -35.84375 35.140625 -32.4375 L 42.425781 -31.027344 C 49.949219 -29.617188 52.296875 -29.027344 55.121094 -27.5 C 58.410156 -25.738281 60.289062 -22.210938 60.289062 -18.097656 C 60.289062 -9.871094 53.589844 -4.347656 43.367188 -4.347656 C 30.085938 -4.347656 18.453125 -14.808594 11.988281 -32.4375 L 5.992188 -32.4375 L 6.699219 0.824219 L 11.988281 0.824219 L 19.273438 -6.109375 C 26.441406 -0.707031 33.964844 1.761719 43.367188 1.761719 C 61.699219 1.761719 74.394531 -9.753906 74.394531 -26.207031 Z M 74.394531 -26.207031 "/></g></g></g></svg>